<svg width="164" height="55" viewBox="0 0 164 55" fill="none" xmlns="http://www.w3.org/2000/svg">
<path d="M73.8031 18.9954C73.8031 19.8897 73.3592 20.4114 72.6932 20.4114C71.9533 20.4114 71.5833 19.8897 71.5833 18.9954H67.9576C68.0316 21.6785 69.5855 23.5417 72.7672 23.5417C75.727 23.5417 77.3548 21.6785 77.5028 18.9954H73.8031Z" fill="#562212"/>
<path d="M66.1078 37.1808V24.5106H70.3254C70.3254 24.5106 70.3254 29.9513 70.3254 30.3985C70.3254 30.8457 70.2514 31.2929 70.2514 31.2929H70.3994L74.987 24.436H79.0566V37.1063H74.839C74.839 37.1063 74.839 31.7401 74.839 31.1438C74.839 30.6966 74.913 30.324 74.913 30.324H74.765L70.1034 37.1808H66.1078Z" fill="#562212"/>
<path d="M57.3766 24.2126C61.3722 24.2126 64.406 27.0448 64.406 30.9204C64.406 34.7215 61.4462 37.5537 57.3766 37.5537C53.3809 37.5537 50.4212 34.7215 50.4212 30.9204C50.4212 27.0448 53.3809 24.2126 57.3766 24.2126ZM57.3766 33.6035C58.9304 33.6035 59.8924 32.411 59.8924 30.9204C59.8924 29.3553 58.8565 28.1628 57.3766 28.1628C55.8967 28.1628 54.8608 29.3553 54.8608 30.9204C54.7868 32.411 55.8967 33.6035 57.3766 33.6035Z" fill="#562212"/>
<path d="M45.3157 24.5107C45.3157 24.5107 41.764 29.1317 41.616 29.2807C41.468 29.5043 41.394 29.5788 41.394 29.5788H41.246C41.246 29.5788 41.246 29.4298 41.024 29.2807C40.8761 28.9826 37.1764 24.5107 37.1764 24.5107H33.8467V37.181H37.9163C37.9163 37.181 37.9163 32.411 37.9163 31.8893C37.9163 31.293 37.8423 30.9949 37.8423 30.9949H37.9903L41.246 34.796H41.468L44.5017 30.9949H44.6497C44.6497 30.9949 44.5757 31.3676 44.5757 31.8893C44.5757 32.4855 44.5757 37.181 44.5757 37.181H48.6454V24.5107H45.3157Z" fill="#562212"/>
<path d="M90.8639 24.4965C88.718 24.4965 86.4982 25.689 85.6843 27.4778H85.5363C85.6103 27.3287 85.6843 27.1051 85.6843 26.9561C85.9063 24.1984 86.9422 22.037 89.088 21.2917C90.4199 20.8445 91.7518 20.6209 92.7137 20.3974C93.7496 20.1738 94.8595 19.8756 95.5254 19.7266L94.7855 17.5652C93.6016 17.8633 92.4917 18.1614 90.7159 18.5341C89.9759 18.6831 89.088 18.8322 88.1261 19.2794C84.7964 20.6209 83.3165 23.4531 83.3165 28.8193C83.3165 33.6638 85.6843 37.4649 90.2719 37.4649C94.4895 37.4649 97.0053 34.1855 97.0053 30.8317C97.0793 27.0306 94.6375 24.4965 90.8639 24.4965ZM90.2719 35.3035C87.4602 35.3035 85.8323 32.6949 85.8323 29.7137C86.4982 27.9995 88.5701 26.5834 90.3459 26.5834C92.8617 26.5834 94.4895 28.1486 94.4895 30.9062C94.4895 33.5148 92.6397 35.3035 90.2719 35.3035Z" fill="#562212"/>
<path d="M101.297 33.4402C101.297 33.4402 101.223 33.4402 101.149 33.4402C101.223 33.2166 101.297 32.9185 101.297 32.6203C101.297 32.3222 101.297 24.3474 101.297 24.3474H98.7811V37.0176H101.001L108.178 27.9249C108.178 27.9249 108.252 27.9249 108.326 27.9249C108.252 28.1485 108.178 28.4466 108.178 28.7447C108.178 29.0428 108.178 37.0176 108.178 37.0176H110.694V24.3474H108.474L101.297 33.4402Z" fill="#562212"/>
<path d="M120.313 30.5336C121.793 29.9373 122.533 28.9684 122.533 27.4778C122.533 25.3909 120.831 23.9749 117.797 23.9749C116.096 23.9749 114.246 24.4966 112.692 25.6145L113.654 27.4033C114.764 26.5089 116.244 26.0617 117.427 26.0617C119.055 26.0617 119.943 26.7325 119.943 27.8505C119.943 28.8939 119.129 29.5647 117.871 29.5647H115.874V31.5025H118.093C119.647 31.5025 120.387 32.0242 120.387 33.0676C120.387 34.3346 119.129 35.1545 117.279 35.1545C115.948 35.1545 114.394 34.5582 113.432 33.7384L112.47 35.5271C113.58 36.496 115.43 37.2413 117.649 37.2413C120.683 37.2413 122.977 35.6762 122.977 33.2912C122.903 31.9496 122.015 30.7572 120.313 30.5336Z" fill="#562212"/>
<path d="M133.928 29.5646H127.195V24.3474H124.679V37.0176H127.195V31.5024H133.928V37.0176H136.444V24.3474H133.928V29.5646Z" fill="#562212"/>
<path d="M144.287 24.0493C140.587 24.0493 138.146 26.956 138.146 30.8316C138.146 34.6327 140.587 37.4649 144.953 37.4649C147.099 37.4649 148.875 36.7941 150.207 35.7507L149.245 33.9619C148.283 34.7072 146.803 35.378 145.101 35.378C142.363 35.378 141.031 33.8874 140.809 31.6515H150.429C150.429 31.4279 150.503 31.1297 150.503 30.8316C150.429 26.956 148.579 24.0493 144.287 24.0493ZM140.809 29.6391C141.105 27.7013 142.585 26.1362 144.435 26.1362C146.729 26.1362 147.839 27.7013 147.987 29.6391H140.809Z" fill="#562212"/>
<path d="M159.086 35.3035C156.496 35.3035 154.646 33.3657 154.646 30.6081C154.646 28.2231 156.126 26.2108 158.938 26.2108C160.196 26.2108 161.528 26.5834 162.933 27.4778C162.933 27.4778 163.599 26.2853 163.969 25.6145C162.489 24.5711 160.714 23.9749 158.864 23.9749C154.794 23.9749 152.056 26.807 152.056 30.6826C152.056 34.4092 154.794 37.3904 158.864 37.3904C160.862 37.3904 162.637 36.7941 163.969 35.7507L163.007 33.962C162.045 34.7073 160.64 35.3035 159.086 35.3035Z" fill="#562212"/>
<path d="M16.4588 46.2102L12.3259 42.0474L8.19312 46.2102L12.3259 54.9741L16.4588 46.2102Z" fill="#ED5338"/>
<path d="M12.326 23.9351C13.9278 23.9351 15.2262 22.6272 15.2262 21.0138C15.2262 19.4004 13.9278 18.0925 12.326 18.0925C10.7243 18.0925 9.42578 19.4004 9.42578 21.0138C9.42578 22.6272 10.7243 23.9351 12.326 23.9351Z" fill="#C59368"/>
<path d="M12.326 5.09253C11.4559 5.53072 0 11.6654 0 21.3787C0 29.7044 6.74303 42.339 6.74303 42.339L12.326 36.7155L17.9089 42.339C17.9089 42.339 24.652 29.7044 24.652 21.3787C24.652 11.6654 13.196 5.53072 12.326 5.09253ZM16.0238 32.9179L12.326 29.1932L8.62819 32.9179C8.41067 32.4066 5.94548 25.6876 5.94548 21.2327C5.94548 15.3171 11.8184 11.9576 12.326 11.7385C12.761 11.9576 18.7065 15.3171 18.7065 21.2327C18.634 25.6876 16.1688 32.4066 16.0238 32.9179Z" fill="#C59368"/>
<path d="M28.8574 5.1042L24.6533 0.869629L20.4493 5.10421L24.6533 9.33878L28.8574 5.1042Z" fill="#C59368"/>
</svg>
